# xmcd
#
# Track frame offsets: 
#        150
#        19410
#        36300
#        58028
#        90728
#        106313
#        130313
#        146213
#        161626
#        183714
#        208239
#        229297
#        243902
#        272419
#        293339
#        320144
#        344139
#
# Disc length: 4798 seconds
#
# Revision: 0
# Processed by: cddbd v1.5.2PL0 Copyright (c) Steve Scherf et al.
# Submitted via: ExactAudioCopy v0.99pb2
#
DISCID=0f12bc11
DTITLE=The Groundhogs - Thank Christ for the Bomb,Back Against the Wal
DTITLE=l
DYEAR=1970
DGENRE=Rock
TTITLE0=Strange Town
TTITLE1=Darkness Is No Friend
TTITLE2=Soldier
TTITLE3=Thank Christ for the Bomb
TTITLE4=Ship on the Ocean
TTITLE5=Garden
TTITLE6=Status People
TTITLE7=Rich Man, Poor Man
TTITLE8=Eccentric Man
TTITLE9=Back Against the Wall
TTITLE10=No to Submission
TTITLE11=Blue Boar Blues
TTITLE12=Waiting in Shadows
TTITLE13=Ain't No Slaver
TTITLE14=Stick to Your Guns
TTITLE15=In the Meantime
TTITLE16=54146
EXTD=
EXTT0=
EXTT1=
EXTT2=
EXTT3=
EXTT4=
EXTT5=
EXTT6=
EXTT7=
EXTT8=
EXTT9=
EXTT10=
EXTT11=
EXTT12=
EXTT13=
EXTT14=
EXTT15=
EXTT16=
PLAYORDER=
